<svg width="932" height="282" viewBox="0 0 932 282" fill="none" xmlns="http://www.w3.org/2000/svg">
<g clip-path="url(#clip0_335_110)">
<path d="M247.5 3.11006L247.43 3.00006C247.31 2.85006 247.19 2.71006 247.06 2.57006L246.75 2.24006L246.58 2.09006C245.713 1.28306 244.673 0.683695 243.54 0.337225C242.407 -0.00924408 241.21 -0.0937584 240.04 0.0900646C237.4 0.500065 175.73 10.3601 118.46 43.0901C98.4134 37.2542 77.2952 36.0945 56.73 39.7001C35.15 43.3701 21.73 52.2501 16.8 66.1001C12.53 78.1501 15.16 92.9201 24.64 110C28.8197 117.449 33.7019 124.481 39.22 131C40.6326 132.386 42.5162 133.187 44.4941 133.243C46.4719 133.299 48.3979 132.606 49.8868 131.303C51.3757 130 52.3176 128.183 52.524 126.215C52.7304 124.247 52.1861 122.274 51 120.69C46.1578 114.924 41.8721 108.713 38.2 102.14C33.33 93.2901 28.2 80.7701 31.57 71.3301C34.45 63.2501 43.79 57.8201 59.34 55.1701C72.6484 52.8543 86.2476 52.7496 99.59 54.8601C88.3856 62.4779 77.9199 71.129 68.33 80.7001C67.5152 81.4097 66.8557 82.28 66.3927 83.2564C65.9298 84.2327 65.6734 85.2942 65.6396 86.3742C65.6058 87.4542 65.7954 88.5296 66.1964 89.533C66.5975 90.5364 67.2013 91.4461 67.9702 92.2054C68.7391 92.9646 69.6564 93.5569 70.6648 93.9452C71.6732 94.3335 72.7509 94.5094 73.8304 94.462C74.9099 94.4146 75.968 94.1448 76.9384 93.6695C77.9088 93.1943 78.7707 92.5238 79.47 91.7001C91.7564 79.5454 105.481 68.9369 120.34 60.1101C146.79 69.5801 161.23 86.5201 161.34 86.6801C161.45 86.8401 161.49 86.8401 161.56 86.9201C161.63 87.0001 161.75 87.1301 161.85 87.2401L162.16 87.5201C162.23 87.5801 162.29 87.6501 162.36 87.7001C162.43 87.7501 179.51 102.34 189 128.8C169.55 160.94 146.29 183.88 119.82 196.99C118.668 197.564 117.674 198.412 116.926 199.46C116.179 200.508 115.7 201.723 115.533 203C115.367 204.276 115.516 205.574 115.969 206.779C116.422 207.984 117.164 209.059 118.13 209.91C124.639 215.441 131.673 220.324 139.13 224.49C150.91 231.04 161.6 234.32 171.05 234.32C175.136 234.351 179.196 233.675 183.05 232.32C196.9 227.41 205.78 213.98 209.45 192.4C213.067 171.833 211.914 150.711 206.08 130.66C238.77 73.4001 248.63 11.7401 249 9.10007C249.167 8.05208 249.121 6.98106 248.863 5.95159C248.605 4.92212 248.141 3.95552 247.5 3.11006ZM173 76.1701C170.48 73.2901 158.52 60.4501 137.8 50.4601C175.16 31.3301 213.21 21.6401 231.43 17.7401C227.49 36.0001 217.8 74.0001 198.67 111.37C188.69 90.6501 175.85 78.6901 173 76.1701ZM194 189.78C191.36 205.33 185.92 214.67 177.84 217.54C166 221.75 148.95 212.9 137.61 205.11C158.76 192.32 177.75 173.7 194.32 149.53C196.432 162.873 196.324 176.473 194 189.78Z" fill="#2256CA"/>
<path d="M69.93 178.67C68.4583 177.202 66.4641 176.377 64.385 176.377C62.3059 176.377 60.3117 177.202 58.84 178.67L4.41001 233.1C2.97879 234.58 2.18648 236.564 2.20383 238.623C2.22118 240.682 3.0468 242.651 4.50276 244.107C5.95872 245.563 7.92844 246.389 9.98741 246.406C12.0464 246.424 14.0297 245.631 15.51 244.2L69.93 189.77C70.6599 189.042 71.239 188.177 71.6341 187.224C72.0292 186.272 72.2326 185.251 72.2326 184.22C72.2326 183.189 72.0292 182.168 71.6341 181.216C71.239 180.263 70.6599 179.398 69.93 178.67Z" fill="#F04832"/>
<path d="M7.85001 208.46C8.87937 208.46 9.89863 208.257 10.8493 207.862C11.8 207.468 12.6634 206.889 13.39 206.16L67.82 151.73C69.2094 150.243 69.9669 148.274 69.9328 146.239C69.8987 144.205 69.0756 142.262 67.6372 140.823C66.1988 139.383 64.2574 138.558 62.2225 138.522C60.1877 138.486 58.2184 139.242 56.73 140.63L2.30001 195.06C1.20249 196.158 0.455103 197.557 0.15234 199.079C-0.150424 200.602 0.00502974 202.18 0.599048 203.614C1.19307 205.048 2.19898 206.274 3.48961 207.137C4.78025 207.999 6.29766 208.46 7.85001 208.46Z" fill="#F04832"/>
<path d="M96.88 180.79L42.45 235.21C41.6795 235.929 41.0615 236.795 40.6329 237.757C40.2042 238.72 39.9737 239.759 39.9551 240.812C39.9365 241.866 40.1302 242.912 40.5246 243.889C40.9189 244.866 41.5059 245.754 42.2506 246.499C42.9953 247.245 43.8824 247.832 44.8591 248.228C45.8358 248.623 46.882 248.817 47.9355 248.8C48.9889 248.782 50.0281 248.553 50.9909 248.125C51.9538 247.697 52.8207 247.08 53.54 246.31L108 191.88C109.471 190.409 110.297 188.415 110.297 186.335C110.297 184.255 109.471 182.261 108 180.79C106.529 179.319 104.535 178.493 102.455 178.493C100.375 178.493 98.3807 179.319 96.91 180.79H96.88Z" fill="#F04832"/>
<path d="M129.296 140.734C137.809 135.225 140.244 123.858 134.735 115.345C129.226 106.832 117.858 104.397 109.346 109.907C100.833 115.416 98.3982 126.783 103.907 135.296C109.417 143.809 120.784 146.243 129.296 140.734Z" fill="#F04832"/>
<path d="M319.05 168C316.067 174.188 311.375 179.392 305.53 183L321.46 229.5L321.65 230.42C321.613 231.294 321.249 232.122 320.631 232.741C320.012 233.36 319.184 233.723 318.31 233.76H306.64C305.938 233.772 305.253 233.542 304.7 233.11C304.161 232.703 303.742 232.157 303.49 231.53L289 188.9L263.63 189.08V201.87L263.07 230.58C263.062 231.413 262.728 232.21 262.139 232.799C261.55 233.388 260.753 233.722 259.92 233.73H248.85C248.015 233.728 247.216 233.395 246.626 232.805C246.035 232.214 245.703 231.415 245.7 230.58L245.14 201.87V135.87L245.7 106.97C245.688 106.569 245.764 106.171 245.923 105.803C246.082 105.435 246.32 105.106 246.62 104.84C247.231 104.291 248.028 103.994 248.85 104.01L282.93 103.82C290.309 103.715 297.567 105.705 303.86 109.56C309.992 113.341 315.012 118.678 318.41 125.03C321.966 131.662 323.782 139.086 323.69 146.61C323.82 154.003 322.232 161.326 319.05 168ZM298.12 163.18C301.953 158.727 303.867 153.23 303.86 146.69C304.02 140.596 301.934 134.656 298 130C296.169 127.786 293.858 126.018 291.241 124.831C288.625 123.644 285.772 123.069 282.9 123.15H263.48L263.67 135.93V170.2L282.93 169.83C289.23 169.823 294.293 167.597 298.12 163.15V163.18Z" fill="#2F4165"/>
<path d="M430.76 204.83C430.76 211.01 430.637 216.443 430.39 221.13C430.143 225.817 429.957 228.78 429.83 230.02C429.832 230.506 429.734 230.988 429.543 231.435C429.352 231.882 429.072 232.285 428.72 232.62C428.357 232.985 427.923 233.271 427.445 233.462C426.967 233.653 426.455 233.744 425.94 233.73H416.12C415.664 233.717 415.216 233.611 414.802 233.421C414.388 233.23 414.016 232.958 413.71 232.62C412.994 231.927 412.539 231.009 412.42 230.02L412.23 221.87C412.236 221.762 412.214 221.654 412.165 221.557C412.115 221.46 412.041 221.379 411.95 221.32C411.77 221.2 411.55 221.26 411.31 221.5C408.83 224.96 405 227.863 399.82 230.21C395.13 232.443 390.014 233.644 384.82 233.73C376.79 233.727 368.901 231.611 361.947 227.595C354.993 223.579 349.217 217.805 345.2 210.852C341.182 203.898 339.065 196.01 339.06 187.98C339.055 179.949 341.162 172.059 345.17 165.1C349.186 158.185 354.935 152.436 361.85 148.42C368.812 144.305 376.763 142.162 384.85 142.22C392.646 142.16 400.317 144.172 407.08 148.05C413.773 151.849 419.408 157.264 423.47 163.8C427.606 170.399 429.937 177.968 430.23 185.75C430.583 192.543 430.76 198.903 430.76 204.83ZM398.43 211.5C402.537 209.057 405.936 205.585 408.291 201.427C410.646 197.269 411.876 192.569 411.86 187.79C411.901 182.996 410.621 178.284 408.16 174.17C405.753 170.102 402.34 166.72 398.25 164.35C394.116 161.948 389.411 160.701 384.63 160.74C379.897 160.719 375.25 162.002 371.2 164.45C367.114 166.865 363.705 170.274 361.29 174.36C358.867 178.488 357.59 183.188 357.59 187.975C357.59 192.762 358.867 197.462 361.29 201.59C363.705 205.676 367.114 209.085 371.2 211.5C375.328 213.923 380.028 215.2 384.815 215.2C389.602 215.2 394.302 213.923 398.43 211.5Z" fill="#2F4165"/>
<path d="M453.17 250C452.923 235.8 452.8 222.587 452.8 210.36C452.8 202.093 452.923 193.88 453.17 185.72C453.463 177.938 455.794 170.369 459.93 163.77C464.007 157.214 469.676 151.796 476.41 148.02C483.323 144.136 491.131 142.127 499.059 142.192C506.988 142.257 514.762 144.394 521.61 148.39C528.486 152.423 534.198 158.17 538.19 165.07C542.2 172.027 544.31 179.916 544.31 187.945C544.31 195.975 542.2 203.863 538.19 210.82C534.201 217.719 528.487 223.463 521.61 227.49C514.698 231.613 506.788 233.761 498.74 233.7C493.546 233.614 488.431 232.413 483.74 230.18C478.553 227.827 474.727 224.987 472.26 221.66C472.219 221.551 472.139 221.462 472.035 221.41C471.931 221.358 471.811 221.347 471.7 221.38C471.592 221.397 471.495 221.454 471.426 221.539C471.358 221.624 471.324 221.731 471.33 221.84L471 277.63C470.975 278.604 470.577 279.532 469.889 280.222C469.201 280.912 468.274 281.312 467.3 281.34H457.48C456.504 281.315 455.575 280.916 454.885 280.225C454.194 279.535 453.795 278.606 453.77 277.63C453.617 273.43 453.417 264.22 453.17 250ZM475.17 201.56C477.585 205.646 480.994 209.055 485.08 211.47C489.208 213.893 493.908 215.17 498.695 215.17C503.482 215.17 508.182 213.893 512.31 211.47C516.396 209.055 519.805 205.646 522.22 201.56C524.698 197.472 526.006 192.781 526 188C526.03 183.178 524.748 178.439 522.29 174.29C519.905 170.181 516.489 166.765 512.38 164.38C508.249 161.979 503.548 160.732 498.77 160.77C493.975 160.732 489.263 162.016 485.15 164.48C481.064 166.895 477.655 170.304 475.24 174.39C472.817 178.518 471.54 183.218 471.54 188.005C471.54 192.792 472.817 197.492 475.24 201.62L475.17 201.56Z" fill="#2F4165"/>
<path d="M588 122.58C588.012 124.086 587.715 125.579 587.126 126.965C586.538 128.352 585.671 129.602 584.58 130.64C583.512 131.745 582.229 132.619 580.81 133.209C579.391 133.799 577.867 134.092 576.33 134.07C574.803 134.094 573.286 133.81 571.871 133.237C570.455 132.663 569.17 131.81 568.09 130.73C566.981 129.686 566.103 128.422 565.512 127.018C564.922 125.615 564.631 124.103 564.66 122.58C564.66 119.485 565.89 116.517 568.078 114.328C570.267 112.14 573.235 110.91 576.33 110.91C579.425 110.91 582.393 112.14 584.582 114.328C586.77 116.517 588 119.485 588 122.58ZM581.7 142.22H571C570.138 142.222 569.309 142.55 568.68 143.14C568.348 143.445 568.087 143.819 567.914 144.235C567.741 144.651 567.661 145.1 567.68 145.55L567.12 175.19V200.75L567.68 230.58C567.675 231.001 567.762 231.417 567.935 231.801C568.108 232.184 568.362 232.525 568.68 232.8C569.305 233.397 570.136 233.73 571 233.73H581.74C582.575 233.728 583.374 233.395 583.964 232.805C584.555 232.214 584.887 231.415 584.89 230.58L585.63 200.75V175.19L584.89 145.55C584.907 145.107 584.834 144.665 584.676 144.251C584.518 143.837 584.278 143.459 583.97 143.14C583.677 142.842 583.327 142.606 582.94 142.448C582.553 142.29 582.138 142.212 581.72 142.22H581.7Z" fill="#2F4165"/>
<path d="M699.54 129.25C699.78 142.47 699.903 154.88 699.91 166.48C699.91 178.22 699.787 186.127 699.54 190.2C699.25 197.998 696.919 205.584 692.78 212.2C688.693 218.749 683.022 224.163 676.29 227.94C669.378 231.816 661.577 233.829 653.653 233.78C645.729 233.73 637.953 231.622 631.09 227.66C624.163 223.619 618.42 217.827 614.438 210.866C610.456 203.905 608.373 196.02 608.4 188C608.338 179.965 610.449 172.063 614.51 165.13C618.505 158.233 624.217 152.486 631.09 148.45C638.008 144.334 645.92 142.19 653.97 142.25C659.125 142.327 664.207 143.492 668.88 145.67C674 147.963 677.86 150.837 680.46 154.29C680.542 154.403 680.662 154.483 680.797 154.515C680.932 154.548 681.075 154.532 681.2 154.47C681.31 154.427 681.405 154.351 681.471 154.253C681.537 154.155 681.572 154.039 681.57 153.92L681.75 103.53C681.778 102.556 682.178 101.629 682.868 100.941C683.558 100.253 684.486 99.8553 685.46 99.8301H695.28C696.254 99.8529 697.182 100.25 697.871 100.939C698.56 101.628 698.957 102.556 698.98 103.53C699.1 107.47 699.287 116.043 699.54 129.25ZM677.54 174.36C675.118 170.276 671.706 166.868 667.62 164.45C663.494 162.021 658.793 160.741 654.005 160.741C649.217 160.741 644.516 162.021 640.39 164.45C636.304 166.865 632.895 170.274 630.48 174.36C628.019 178.47 626.738 183.179 626.78 187.97C626.746 192.791 628.025 197.531 630.48 201.68C632.878 205.81 636.329 209.229 640.48 211.59C644.585 213.975 649.252 215.222 654 215.2C658.791 215.242 663.5 213.961 667.61 211.5C671.696 209.082 675.108 205.674 677.53 201.59C679.953 197.462 681.23 192.762 681.23 187.975C681.23 183.188 679.953 178.488 677.53 174.36H677.54Z" fill="#2F4165"/>
<path d="M797.53 178.9C800.581 184.328 802.176 190.453 802.16 196.68C802.173 202.965 800.612 209.153 797.62 214.68C794.617 220.331 790.178 225.091 784.75 228.48C778.911 232.078 772.157 233.912 765.3 233.76H724C723.165 233.757 722.366 233.425 721.776 232.834C721.185 232.244 720.853 231.445 720.85 230.61L720.29 201.9V135.9L720.85 107.19C720.849 106.776 720.929 106.366 721.087 105.983C721.245 105.6 721.477 105.252 721.77 104.96C722.062 104.667 722.41 104.435 722.793 104.277C723.176 104.119 723.586 104.039 724 104.04L756.6 103.85C763.296 103.753 769.883 105.552 775.6 109.04C781.093 112.369 785.601 117.101 788.66 122.75C791.713 128.311 793.306 134.556 793.29 140.9C793.262 149.916 789.821 158.587 783.66 165.17C789.454 168.389 794.252 173.139 797.53 178.9ZM738.62 120.36L738.81 160.93L756.59 160.74C762.757 160.74 767.543 158.763 770.95 154.81C774.24 150.821 776.04 145.811 776.04 140.64C776.04 135.469 774.24 130.459 770.95 126.47C767.55 122.517 762.763 120.54 756.59 120.54L738.62 120.36ZM778.26 211.22C781.268 207.108 782.89 202.145 782.89 197.05C782.89 191.955 781.268 186.992 778.26 182.88C775.18 178.88 770.847 176.88 765.26 176.88L738.77 176.69V217.45L765.26 217.26C770.84 217.247 775.173 215.233 778.26 211.22Z" fill="#2F4165"/>
<path d="M844 122.58C844.011 124.087 843.712 125.58 843.122 126.966C842.532 128.353 841.663 129.603 840.57 130.64C839.503 131.746 838.22 132.621 836.801 133.211C835.382 133.801 833.857 134.093 832.32 134.07C830.793 134.093 829.277 133.809 827.862 133.235C826.446 132.661 825.16 131.81 824.08 130.73C822.974 129.684 822.099 128.419 821.51 127.016C820.921 125.613 820.632 124.102 820.66 122.58C820.66 119.485 821.889 116.517 824.078 114.328C826.267 112.14 829.235 110.91 832.33 110.91C835.425 110.91 838.393 112.14 840.582 114.328C842.77 116.517 844 119.485 844 122.58ZM837.7 142.22H827C826.14 142.219 825.313 142.549 824.69 143.14C824.359 143.445 824.098 143.819 823.925 144.235C823.752 144.651 823.672 145.1 823.69 145.55L823.13 175.19V200.75L823.69 230.58C823.686 231.001 823.773 231.417 823.946 231.8C824.118 232.184 824.372 232.525 824.69 232.8C825.31 233.398 826.138 233.732 827 233.73H837.75C838.583 233.722 839.38 233.388 839.969 232.799C840.558 232.21 840.892 231.413 840.9 230.58L841.64 200.75V175.19L840.9 145.55C840.917 145.106 840.844 144.664 840.684 144.249C840.524 143.835 840.281 143.457 839.97 143.14C839.679 142.842 839.33 142.607 838.945 142.449C838.56 142.291 838.146 142.213 837.73 142.22H837.7Z" fill="#2F4165"/>
<path d="M928.12 233.17L868.66 233.73C868.309 233.737 867.96 233.665 867.64 233.519C867.32 233.374 867.036 233.159 866.81 232.89C866.323 232.363 866.058 231.668 866.07 230.95C866.019 230.311 866.147 229.67 866.44 229.1L888.67 188L904 160.37L867.51 159.82C867.096 159.827 866.685 159.748 866.303 159.588C865.921 159.428 865.576 159.19 865.29 158.89C864.99 158.604 864.753 158.26 864.593 157.878C864.433 157.495 864.353 157.084 864.36 156.67V146.11C864.368 145.277 864.702 144.48 865.291 143.891C865.88 143.302 866.677 142.968 867.51 142.96L927.9 142.22C928.282 142.208 928.661 142.285 929.008 142.445C929.355 142.605 929.661 142.843 929.9 143.14C930.373 143.7 930.638 144.407 930.65 145.14C930.685 145.72 930.557 146.299 930.28 146.81L907.93 188L892.74 215.6L928.12 216.35C928.535 216.341 928.948 216.418 929.332 216.576C929.715 216.735 930.062 216.971 930.35 217.27C930.645 217.559 930.879 217.905 931.037 218.286C931.195 218.668 931.274 219.077 931.27 219.49V229.87C931.271 230.73 930.942 231.557 930.35 232.18C930.072 232.497 929.729 232.749 929.344 232.92C928.959 233.091 928.541 233.176 928.12 233.17Z" fill="#2F4165"/>
<path d="M498.95 203.22C507.472 203.22 514.38 196.312 514.38 187.79C514.38 179.268 507.472 172.36 498.95 172.36C490.428 172.36 483.52 179.268 483.52 187.79C483.52 196.312 490.428 203.22 498.95 203.22Z" fill="#2256CA"/>
<path d="M654.52 203.24C663.042 203.24 669.95 196.332 669.95 187.81C669.95 179.288 663.042 172.38 654.52 172.38C645.998 172.38 639.09 179.288 639.09 187.81C639.09 196.332 645.998 203.24 654.52 203.24Z" fill="#F04832"/>
</g>
<defs>
<clipPath id="clip0_335_110">
<rect width="931.27" height="281.34" fill="white"/>
</clipPath>
</defs>
</svg>
